<?xml version="1.0" encoding="windows-1252"?>
<!-- Generator: Adobe Illustrator 18.1.1, SVG Export Plug-In . SVG Version: 6.00 Build 0)  -->
<svg version="1.1" id="Capa_1" xmlns="http://www.w3.org/2000/svg" xmlns:xlink="http://www.w3.org/1999/xlink" x="0px" y="0px" viewBox="0 0 395.973 395.973" style="enable-background:new 0 0 395.973 395.973;" xml:space="preserve">
<g>
	<g>
		<path style="fill:#030104;" d="M358.477,0H37.52C16.838,0,0.019,16.821,0.019,37.503v320.97c0,20.682,16.819,37.5,37.501,37.5    h320.957c20.684,0,37.478-16.818,37.478-37.5V37.503C395.954,16.82,379.161,0,358.477,0z M363.844,358.471    c0,2.937-2.405,5.365-5.367,5.365H37.52c-2.938,0-5.356-2.431-5.356-5.365V37.502c0-2.962,2.417-5.357,5.356-5.357h320.957    c2.962,0,5.367,2.396,5.367,5.357V358.471z"/>
		<path style="fill:#030104;" d="M321.557,73.149H74.417c-4.971,0-9,4.029-9,9v31.674c0,4.971,4.029,9,9,9h247.14    c4.971,0,9-4.029,9-9V82.149C330.557,77.177,326.527,73.149,321.557,73.149z"/>
		<path style="fill:#030104;" d="M321.557,173.149H74.417c-4.971,0-9,4.029-9,9v31.673c0,4.972,4.029,9,9,9h247.14    c4.971,0,9-4.028,9-9v-31.673C330.557,177.177,326.527,173.149,321.557,173.149z"/>
		<path style="fill:#030104;" d="M321.557,273.148H74.417c-4.971,0-9,4.029-9,9v31.674c0,4.972,4.029,9,9,9h247.14    c4.971,0,9-4.028,9-9v-31.674C330.557,277.177,326.527,273.148,321.557,273.148z"/>
	</g>
</g>
<g>
</g>
<g>
</g>
<g>
</g>
<g>
</g>
<g>
</g>
<g>
</g>
<g>
</g>
<g>
</g>
<g>
</g>
<g>
</g>
<g>
</g>
<g>
</g>
<g>
</g>
<g>
</g>
<g>
</g>
</svg>