<svg xmlns="http://www.w3.org/2000/svg" version="1.1" xmlns:xlink="http://www.w3.org/1999/xlink" xmlns:svgjs="http://svgjs.com/svgjs" width="512" height="512" x="0" y="0" viewBox="0 0 512.001 512.001" style="enable-background:new 0 0 512 512" xml:space="preserve" class=""><g><g xmlns="http://www.w3.org/2000/svg"><path d="m461.135 50.866c-32.802-32.801-76.413-50.866-122.802-50.866-46.388 0-90 18.064-122.801 50.866-26.877 26.877-43.875 60.927-49.158 98.471-4.583 32.565.306 66.264 13.781 96.083l-180.155 180.155v86.425h86.426l27.956-27.956-.218-31.628 32.064-.218 34.349-34.348.004-28.555 28.845-.295 57.155-57.155c29.818 13.475 63.518 18.366 96.083 13.781 37.543-5.282 71.594-22.281 98.471-49.158 32.802-32.801 50.866-76.413 50.866-122.801s-18.064-89.999-50.866-122.801zm-21.213 224.389c-27.794 27.794-64.305 42.296-101.388 42.295-23.066-.001-46.356-5.613-67.897-17.129l-9.812-5.245-63.953 63.952-46.288.474-.006 45.82-16.861 16.861-49.76.339.338 49.083-10.296 10.296h-43.999v-43.999l186.826-186.826-5.245-9.812c-30.03-56.173-19.917-124.204 25.165-169.286 27.135-27.134 63.213-42.078 101.587-42.078 38.375 0 74.453 14.944 101.588 42.079s42.079 63.213 42.079 101.588-14.943 74.453-42.078 101.588z" fill="#ffffff" data-original="#000000" style="" class=""></path><path d="m330.974 97.541c-23.017 23.017-23.017 60.469 0 83.485 11.15 11.15 25.975 17.291 41.743 17.291 15.769 0 30.593-6.141 41.743-17.291s17.291-25.975 17.291-41.743-6.141-30.593-17.291-41.743c-23.017-23.016-60.469-23.015-83.486.001zm62.273 62.272c-5.484 5.484-12.774 8.504-20.53 8.504-7.755 0-15.046-3.021-20.53-8.504-11.32-11.32-11.32-29.739 0-41.059 5.661-5.661 13.094-8.49 20.53-8.49 7.434 0 14.871 2.831 20.53 8.49 5.483 5.484 8.504 12.775 8.504 20.53-.001 7.755-3.021 15.046-8.504 20.529z" fill="#ffffff" data-original="#000000" style="" class=""></path></g></g></svg>